<svg xmlns="http://www.w3.org/2000/svg" viewBox="0 0 514.68 97.86"><title>logo</title><g id="Camada_2" data-name="Camada 2"><g id="Camada_1-2" data-name="Camada 1"><g id="Grupo_3" data-name="Grupo 3"><g id="Grupo_2" data-name="Grupo 2"><path id="Caminho_12" data-name="Caminho 12" d="M106.44,60c-14.52,0-22.7-9.08-22.7-23.61s8.18-23.6,22.7-23.6c9.08,0,19.06,4.54,20,16.34l-.91.91h-7.27l-.91-.91q-1.36-8.18-10.9-8.17c-9.08,0-13.62,5.44-13.62,15.43s4.54,15.43,13.62,15.43q9.52,0,10.9-8.17l.91-.92h7.27l.91.92C125.5,55.43,115.52,60,106.44,60Z"/><path id="Caminho_13" data-name="Caminho 13" d="M160,60c-13.62,0-22.7-9.08-22.7-23.61s9.08-23.6,22.7-23.6h.92c13.62,0,22.69,9.07,22.69,23.6S174.54,60,160.92,60Zm.92-8.17c8.17,0,13.62-5.45,13.62-15.44s-5.45-15.43-13.62-15.43H160c-8.17,0-13.62,5.45-13.62,15.43S151.83,51.8,160,51.8Z"/><path id="Caminho_14" data-name="Caminho 14" d="M217.21,60c-14.53,0-22.7-9.08-22.7-23.61s8.17-23.6,22.7-23.6c9.07,0,19.06,4.54,20,16.34l-.92.91H229l-.92-.91q-1.37-8.18-10.89-8.17c-9.08,0-13.62,5.44-13.62,15.43s4.54,15.43,13.62,15.43q9.52,0,10.89-8.17l.92-.92h7.26l.92.92C236.26,55.43,226.27,60,217.21,60Z"/><path id="Caminho_15" data-name="Caminho 15" d="M270.75,60c-13.62,0-22.69-9.08-22.69-23.61s9.07-23.6,22.69-23.6h.92c13.62,0,22.7,9.07,22.7,23.6S285.29,60,271.67,60Zm.92-8.17c8.17,0,13.62-5.45,13.62-15.44s-5.44-15.43-13.62-15.43h-.92c-8.17,0-13.62,5.45-13.62,15.43s5.45,15.44,13.62,15.44Z"/><path id="Caminho_16" data-name="Caminho 16" d="M346.09,59.06h-7.25l-.92-.92V31.82c0-4.54-1.81-10.89-10-10.89s-12.71,4.54-12.71,15.43V58.15l-.92.91h-7.26l-.92-.91V14.57l.92-.92h6.35l.92.92.92,3.63h.91a15.2,15.2,0,0,1,12.71-5.44c12.71,0,18.16,8.17,18.16,19.06V58.14Z"/><path id="Caminho_17" data-name="Caminho 17" d="M400.57,59.06h-6.35l-.92-.92-.92-3.63h-.91A14.39,14.39,0,0,1,379.66,60c-12.71,0-18.15-9.08-18.15-19.07V14.57l.92-.92h7.26l.92.92V40.89c0,5.45,2.72,10.9,10,10.9,6.35,0,11.79-4.55,11.79-14.53V14.57l.92-.92h7.26l.92.92V58.15Z"/><path id="Caminho_18" data-name="Caminho 18" d="M424.18,22.75l-.92-.92H416l-.92-.92V14.56l.92-.92h7.26l.92-.92V.92L425.1,0h7.26l.92.92v11.8l.92.92h15.43l.92.92v6.35l-.92.92H434.2l-.92.92V40.9c0,9.08,4.54,10.9,9.08,10.9a7.56,7.56,0,0,0,8.17-6.9,9,9,0,0,0,0-1.27V41.81l.92-.92h7.26l.92.92v1.82c0,12.71-10,16.34-17.25,16.34-10,0-18.16-5.45-18.16-19.07V22.75Z"/><path id="Caminho_19" data-name="Caminho 19" d="M513.15,59.06H472.29l-.91-.92V50.88l.91-1.81,28.15-26.32v-.92H473.2l-.92-.92V14.56l.92-.92h39l.92.92v7.26l-.92,1.81L484.09,50v.92h29.05l.92.92v6.35Z"/></g></g><path d="M56.76,20.23l-.06.09a22.58,22.58,0,0,0-5.14-6.71,26.61,26.61,0,0,0-8.14-5.12A33.75,33.75,0,0,0,30.66,6.17,43.57,43.57,0,0,0,17.87,7.94a30.42,30.42,0,0,0-8.3,3.94,19.49,19.49,0,0,0-5.84,5.81l0,0a29.62,29.62,0,1,0,53,2.51ZM49,23.46l-3.28-2a5.23,5.23,0,0,0-5.14-.07l-5.4,3.06a5.19,5.19,0,0,1-3.74.5,38.77,38.77,0,0,1-10.27-4.07,5.12,5.12,0,0,0-4.65-.23l-2.9,1.3a5.13,5.13,0,0,1-5.26-.66l-3.55-3,0,0a18.58,18.58,0,0,1,5.46-5.39A35.3,35.3,0,0,1,30.66,7.4a28.7,28.7,0,0,1,20,7.07,22,22,0,0,1,5.26,7l-.46.71A5,5,0,0,1,49,23.46Z"/><g id="Grupo_7" data-name="Grupo 7"><path id="Caminho_1" data-name="Caminho 1" d="M337.4,89.84c0,3-1.41,5.2-4.21,5.2a3.33,3.33,0,0,1-3.21-1.6h-.2l-.2,1.2-.2.2h-.61l-.2-.2V81l.2-.2h.81l.2.2v5.21H330a3.34,3.34,0,0,1,3.21-1.61C336,84.62,337.4,86.83,337.4,89.84Zm-7.63,0c0,2.81,1.21,4.21,3.21,4.21s3.21-1.4,3.21-4.21S335,85.63,333,85.63s-3.2,1.4-3.2,4.21Z"/><path id="Caminho_2" data-name="Caminho 2" d="M347.43,94.45c-.8,2.21-1.4,3.41-3.61,3.41h-.4l-.2-.2v-.61l.2-.2h.4a2,2,0,0,0,2-1.6v-.4l-3.41-9.23V85l.19-.2h.62l.2.2,3,8.42h.2l3-8.42.2-.2h.61l.2.2v.61Z"/><path id="Caminho_3" data-name="Caminho 3" d="M370.29,95.06c-3.21,0-5.21-1.6-5.21-4.41l.2-.2h.8l.2.2c0,2.21,1.41,3.41,4.21,3.41,2.41,0,3.61-1.2,3.61-2.81,0-1.8-1.2-2.41-4.21-3.21s-4.41-1.8-4.41-4c0-1.41.8-3.41,4.61-3.41,2.61,0,4.82,1,4.82,4l-.2.2h-.8l-.2-.2c0-2-1.21-3-3.62-3-2.8,0-3.4,1.21-3.4,2.41,0,1.8,1.2,2.41,4.21,3.21s4.41,1.6,4.41,4C375.31,93.05,374.31,95.06,370.29,95.06Z"/><path id="Caminho_4" data-name="Caminho 4" d="M392.16,89.84a5.22,5.22,0,1,1-10.43,0V81l.2-.2h.8l.2.2v8.82a3.85,3.85,0,0,0,3.46,4.2,3.49,3.49,0,0,0,.56,0,3.75,3.75,0,0,0,4-3.44,4,4,0,0,0,0-.77V81l.2-.2h.8l.2.2Z"/><path id="Caminho_5" data-name="Caminho 5" d="M405.4,88.44h-4.61l-.2.2v6l-.2.2h-.8l-.2-.2V81l.2-.2h5.81c3,0,4.41,1.21,4.41,3.82S408.41,88.44,405.4,88.44Zm.2-6.62h-4.82l-.2.2v5.2l.2.2h4.62c2,0,3.2-.61,3.2-2.81s-1.19-2.79-3-2.79Z"/><path id="Caminho_6" data-name="Caminho 6" d="M424.66,94.85H416l-.2-.2V81l.2-.2h8.63l.2.2v.61l-.2.2h-7.42l-.2.2v5l.2.2h7l.2.2V88l-.2.2h-7l-.2.2v5.2l.2.2h7.42l.2.2v.61Z"/><path id="Caminho_7" data-name="Caminho 7" d="M436.29,88.44h-3.41l-.2.2v6l-.2.2h-.81l-.2-.2V81l.2-.2h5.82c3,0,4.41,1.21,4.41,3.82a3.53,3.53,0,0,1-3.2,3.81,3.11,3.11,0,0,1-.61,0v.2l3.41,5.42v.61l-.2.2h-.4l-.4-.2-3.82-6Zm1.41-6.62h-4.82l-.2.2v5.2l.2.2h4.61c2,0,3.21-.61,3.21-2.81s-1.2-2.79-3-2.79Z"/><path id="Caminho_8" data-name="Caminho 8" d="M458.75,83.22h-6.29l-.2.2-.53,3,.2.19h5.74l.2.2-.36,2-.2.2h-5.88l-.2.2-1,5.41-.2.2h-2.45l-.2-.2L449.83,81l.2-.2h9.07l.2.2L459,83Z"/><path id="Caminho_9" data-name="Caminho 9" d="M469.69,95.06a5.71,5.71,0,0,1-6.13-5.23,5.93,5.93,0,0,1,0-.73,8.11,8.11,0,0,1,7.71-8.48h.13a5.68,5.68,0,0,1,6.11,5.22,5.46,5.46,0,0,1,0,.7,8.08,8.08,0,0,1-7.6,8.52Zm5-8.53A3.09,3.09,0,0,0,472,83a3.18,3.18,0,0,0-.62,0,5.6,5.6,0,0,0-5,6.08,3.12,3.12,0,0,0,2.66,3.53,3.32,3.32,0,0,0,.63,0,5.59,5.59,0,0,0,5-6.11Z"/><path id="Caminho_10" data-name="Caminho 10" d="M488.94,95.06a5.7,5.7,0,0,1-6.12-5.23,5.93,5.93,0,0,1,0-.73,8.11,8.11,0,0,1,7.71-8.48h.14a5.69,5.69,0,0,1,6.11,5.22,5.45,5.45,0,0,1,0,.7,8.07,8.07,0,0,1-7.58,8.52Zm5-8.53A3.1,3.1,0,0,0,491.27,83a3.26,3.26,0,0,0-.62,0,5.6,5.6,0,0,0-5,6.08,3.12,3.12,0,0,0,2.66,3.53,3.32,3.32,0,0,0,.63,0,5.58,5.58,0,0,0,5-6.11Z"/><path id="Caminho_11" data-name="Caminho 11" d="M507,94.85h-5l-.19-.2L504.19,81l.2-.2h4.29c4.15,0,6,2.17,6,5.28C514.66,91,512.15,94.85,507,94.85Zm0-2.4c3.33,0,4.82-2.71,4.82-6.36,0-2-.92-2.87-3.15-2.87h-1.84l-.2.19-1.57,8.83.2.2H507Z"/></g></g></g></svg>